<svg width="35" height="35" viewBox="0 0 35 35" fill="none" xmlns="http://www.w3.org/2000/svg">
<path d="M5.83331 26.25C5.83331 24.7029 6.44789 23.2191 7.54186 22.1252C8.63582 21.0312 10.1196 20.4166 11.6666 20.4166H23.3333C24.8804 20.4166 26.3641 21.0312 27.4581 22.1252C28.5521 23.2191 29.1666 24.7029 29.1666 26.25C29.1666 27.0235 28.8594 27.7654 28.3124 28.3124C27.7654 28.8593 27.0235 29.1666 26.25 29.1666H8.74998C7.97643 29.1666 7.23457 28.8593 6.68758 28.3124C6.1406 27.7654 5.83331 27.0235 5.83331 26.25Z" stroke="black" stroke-width="2" stroke-linejoin="round"/>
<path d="M17.5 14.5833C19.9162 14.5833 21.875 12.6246 21.875 10.2083C21.875 7.79207 19.9162 5.83331 17.5 5.83331C15.0838 5.83331 13.125 7.79207 13.125 10.2083C13.125 12.6246 15.0838 14.5833 17.5 14.5833Z" stroke="black" stroke-width="2"/>
</svg>
